<svg id="Capa_1" enable-background="new 0 0 512 512" height="512" viewBox="0 0 512 512" width="512" xmlns="http://www.w3.org/2000/svg"><g id="XMLID_2930_"><g id="XMLID_195_"><path id="XMLID_1015_" d="m452 370.868v-159.288c0-35.732-15.441-67.925-40-90.257v-71.323c0-27.57-22.43-50-50-50h-111c-5.523 0-10 4.478-10 10s4.477 10 10 10h111c16.542 0 30 13.458 30 30v56.549c-18.181-10.773-39.379-16.969-62-16.969-38.587 0-73.042 18.012-95.414 46.064-5.272-10.453-16.101-17.644-28.586-17.644-17.645 0-32 14.355-32 32s14.355 32 32 32c1.968 0 3.892-.188 5.763-.53-2.455 9.635-3.763 19.722-3.763 30.11v68.42h-80c-5.523 0-10 4.478-10 10v33.984l-41.056-41.056c-1.875-1.875-4.419-2.929-7.071-2.929h-19.873c-16.542 0-30-13.458-30-30v-199.999c0-16.542 13.458-30 30-30h111c5.523 0 10-4.478 10-10s-4.477-10-10-10h-111c-27.57 0-50 22.43-50 50v200c0 27.57 22.43 50 50 50h15.731l55.198 55.198c1.914 1.913 4.471 2.929 7.073 2.929 1.288 0 2.588-.249 3.825-.761 3.737-1.548 6.173-5.194 6.173-9.239v-48.127h70v70.868c-36.357 26.736-60 69.798-60 118.286v12.846c0 5.522 4.477 10 10 10h344c5.523 0 10-4.478 10-10v-12.847c0-48.487-23.643-91.55-60-118.285zm-258-220.868c0-6.617 5.383-12 12-12s12 5.383 12 12-5.383 12-12 12-12-5.383-12-12zm34 61.58c0-56.243 45.757-102 102-102s102 45.757 102 102v146.901c-17.292-8.869-36.566-14.394-56.963-15.744v-22.785c22.36-14.661 37.168-39.93 37.168-68.606v-44.729c0-5.522-4.477-10-10-10h-31.268c7.125-8.984 11.397-20.329 11.397-32.659 0-5.522-4.477-10-10-10s-10 4.478-10 10c0 18.009-14.651 32.659-32.659 32.659h-71.47c-5.523 0-10 4.478-10 10v44.729c0 28.542 14.667 53.712 36.851 68.402v22.982c-20.431 1.339-39.738 6.867-57.056 15.75zm140.679 155.018v48.958l-24.524-24.434zm-52.834 24.524-24.524 24.434v-48.958zm76.36-174.504v34.729c0 34.186-27.813 61.998-62 61.998s-62-27.813-62-61.998v-34.729zm-62 116.727c8.654 0 16.995-1.357 24.832-3.854v18.746l-24.978 24.782-25.003-24.785v-18.851c7.93 2.562 16.377 3.962 25.149 3.962zm161.795 158.655h-42.545v-42.391c0-5.522-4.477-10-10-10s-10 4.478-10 10v42.391h-198.91v-42.391c0-5.522-4.477-10-10-10s-10 4.478-10 10v42.391h-42.545v-2.847c0-61.887 44.586-113.548 103.321-124.571v56.736c0 7.14 4.26 13.522 10.854 16.261 2.195.911 4.493 1.354 6.77 1.354 4.562 0 9.036-1.781 12.41-5.143l28.645-28.539 28.646 28.54c3.375 3.362 7.848 5.143 12.41 5.143 2.276 0 4.575-.443 6.77-1.354 6.594-2.738 10.854-9.121 10.854-16.261v-56.736c58.734 11.022 103.32 62.683 103.32 124.57z"/><path id="XMLID_1025_" d="m329.845 290.063c7.368 0 14.295-2.869 19.505-8.079 3.905-3.906 3.905-10.237 0-14.143-3.905-3.904-10.237-3.904-14.142 0-1.432 1.433-3.336 2.222-5.362 2.222s-3.93-.789-5.362-2.222c-3.904-3.903-10.236-3.904-14.142 0-3.905 3.905-3.906 10.236 0 14.143 5.208 5.21 12.135 8.079 19.503 8.079z"/><path id="XMLID_1054_" d="m85.451 150c0 17.645 14.355 32 32 32s32-14.355 32-32-14.355-32-32-32-32 14.355-32 32zm44 0c0 6.617-5.383 12-12 12s-12-5.383-12-12 5.383-12 12-12 12 5.383 12 12z"/><path id="XMLID_1055_" d="m206 20c2.63 0 5.21-1.07 7.07-2.931 1.86-1.859 2.93-4.439 2.93-7.069s-1.07-5.21-2.93-7.07-4.44-2.93-7.07-2.93-5.21 1.069-7.07 2.93c-1.86 1.86-2.93 4.44-2.93 7.07s1.07 5.21 2.93 7.069c1.86 1.861 4.44 2.931 7.07 2.931z"/></g></g></svg>