<svg width="55" height="55" viewBox="0 0 55 55" fill="none" xmlns="http://www.w3.org/2000/svg">
<g clip-path="url(#clip0)">
<path d="M12.834 36.208C9.80071 36.208 7.33398 38.6747 7.33398 41.708C7.33398 44.7413 9.80071 47.208 12.834 47.208C15.8673 47.208 18.334 44.7413 18.334 41.708C18.334 38.6747 15.8672 36.208 12.834 36.208ZM12.834 45.3746C10.8118 45.3746 9.16735 43.7301 9.16735 41.708C9.16735 39.6858 10.8119 38.0414 12.834 38.0414C14.8561 38.0414 16.5006 39.6859 16.5006 41.708C16.5006 43.7301 14.8561 45.3746 12.834 45.3746Z" fill="black"/>
<path d="M44 36.208C40.9667 36.208 38.5 38.6747 38.5 41.708C38.5 44.7413 40.9667 47.208 44 47.208C47.0333 47.208 49.5 44.7413 49.5 41.708C49.5 38.6747 47.0333 36.208 44 36.208ZM44 45.3746C41.9778 45.3746 40.3334 43.7301 40.3334 41.708C40.3334 39.6858 41.9779 38.0414 44 38.0414C46.0222 38.0414 47.6666 39.6859 47.6666 41.708C47.6666 43.7301 46.0222 45.3746 44 45.3746Z" fill="black"/>
<path d="M54.8548 31.1291L46.6048 18.2958C46.4362 18.0336 46.1456 17.875 45.8339 17.875H35.7506C35.2437 17.875 34.834 18.2857 34.834 18.7916V41.7083C34.834 42.2152 35.2437 42.6249 35.7506 42.6249H39.4172V40.7915H36.6672V19.7084H45.3334L53.1672 31.8945V40.7917H48.5839V42.625H54.0839C54.5908 42.625 55.0005 42.2153 55.0005 41.7084V31.625C55.0006 31.4499 54.9502 31.2766 54.8548 31.1291Z" fill="black"/>
<path d="M40.3333 29.792V23.3754H47.6666V21.542H39.4166C38.9097 21.542 38.5 21.9527 38.5 22.4586V30.7086C38.5 31.2156 38.9097 31.6253 39.4166 31.6253H53.1666V29.7919H40.3333V29.792Z" fill="black"/>
<path d="M35.75 11.458H0.916631C0.410674 11.458 0 11.8687 0 12.3746V41.708C0 42.2149 0.410674 42.6246 0.916631 42.6246H8.25V40.7913H1.83337V13.2913H34.8334V40.7913H17.4166V42.6246H35.75C36.2569 42.6246 36.6666 42.2149 36.6666 41.708V12.3746C36.6666 11.8687 36.2569 11.458 35.75 11.458Z" fill="black"/>
<path d="M5.50031 37.125H1.83368C1.32741 37.125 0.916992 37.5354 0.916992 38.0417C0.916992 38.548 1.32741 38.9584 1.83368 38.9584H5.50031C6.00658 38.9584 6.41699 38.548 6.41699 38.0417C6.41699 37.5354 6.00658 37.125 5.50031 37.125Z" fill="black"/>
<path d="M34.9167 37.125H21.1667C20.6604 37.125 20.25 37.5354 20.25 38.0417C20.25 38.548 20.6604 38.9584 21.1667 38.9584H34.9167C35.423 38.9584 35.8334 38.548 35.8334 38.0417C35.8334 37.5354 35.423 37.125 34.9167 37.125Z" fill="black"/>
<path d="M53.1669 37.125H51.3337C50.8274 37.125 50.417 37.5354 50.417 38.0417C50.417 38.548 50.8274 38.9584 51.3337 38.9584H53.1669C53.6732 38.9584 54.0836 38.548 54.0836 38.0417C54.0836 37.5354 53.6732 37.125 53.1669 37.125Z" fill="black"/>
<path d="M34.8337 15.125H4.58368C4.07741 15.125 3.66699 15.5354 3.66699 16.0417C3.66699 16.548 4.07741 16.9584 4.58368 16.9584H34.8337C35.34 16.9584 35.7504 16.548 35.7504 16.0417C35.7504 15.5354 35.34 15.125 34.8337 15.125Z" fill="black"/>
<path d="M11.917 41.7077C11.917 42.214 12.3274 42.6244 12.8337 42.6244C13.3399 42.6244 13.7504 42.214 13.7504 41.7077C13.7504 41.2014 13.3399 40.791 12.8337 40.791C12.3274 40.791 11.917 41.2014 11.917 41.7077Z" fill="black"/>
<path d="M43.083 41.7077C43.083 42.214 43.4934 42.6244 43.9997 42.6244C44.506 42.6244 44.9164 42.214 44.9164 41.7077C44.9164 41.2014 44.506 40.791 43.9997 40.791C43.4934 40.791 43.083 41.2014 43.083 41.7077Z" fill="black"/>
<path d="M15.5837 7.79199H4.58368C4.07741 7.79199 3.66699 8.20241 3.66699 8.70868C3.66699 9.21495 4.07741 9.62536 4.58368 9.62536H15.5837C16.0899 9.62536 16.5004 9.21495 16.5004 8.70868C16.5004 8.20241 16.0899 7.79199 15.5837 7.79199Z" fill="black"/>
<path d="M0 8.70868C0 9.21495 0.410414 9.62536 0.916685 9.62536C1.42296 9.62536 1.83337 9.21495 1.83337 8.70868C1.83337 8.20241 1.42296 7.79199 0.916685 7.79199C0.410414 7.79199 0 8.20241 0 8.70868Z" fill="black"/>
</g>
<defs>
<clipPath id="clip0">
<rect width="55" height="55" fill="white"/>
</clipPath>
</defs>
</svg>
