<svg width="246" height="246" viewBox="0 0 246 246" fill="none" xmlns="http://www.w3.org/2000/svg">
<g clip-path="url(#clip0)">
<path d="M176.152 109.591C174.857 107.275 171.93 106.45 169.613 107.745L169.359 107.889C167.054 109.203 166.249 112.136 167.562 114.442C168.448 115.997 170.071 116.869 171.741 116.869C172.547 116.869 173.365 116.666 174.115 116.238L174.307 116.13C176.622 114.835 177.448 111.907 176.152 109.591Z" fill="black" fill-opacity="0.38"/>
<path d="M97.5685 144.107C96.6753 143.213 95.4357 142.699 94.1721 142.699C92.9085 142.699 91.6689 143.213 90.7752 144.107C89.881 145.001 89.3674 146.24 89.3674 147.504C89.3674 148.768 89.8815 150.007 90.7752 150.901C91.6689 151.794 92.9085 152.309 94.1721 152.309C95.4357 152.309 96.6753 151.794 97.5685 150.901C98.4627 150.007 98.9768 148.768 98.9768 147.504C98.9768 146.24 98.4622 145.001 97.5685 144.107Z" fill="black" fill-opacity="0.38"/>
<path d="M123.961 121.079H112.202C119.08 105.738 123.639 89.5326 125.768 72.7979L127.767 57.0915C128.022 55.0855 126.994 53.1348 125.195 52.2109C123.395 51.2865 121.212 51.5887 119.73 52.9643L118.123 54.4571C111.434 60.67 105.465 67.4763 100.259 74.777C104.478 54.5229 109.903 34.0502 115.8 21.1982L115.824 21.1449C116.735 19.1586 116.19 16.8082 114.498 15.4249C112.807 14.0416 110.396 13.9734 108.629 15.2591C99.0837 22.2072 90.4958 30.4635 83.1327 39.6952C84.4737 28.3422 87.589 17.1608 92.3519 6.81397C93.2047 4.96033 92.7944 2.77036 91.328 1.35154C89.8611 -0.0667948 87.6596 -0.405043 85.8344 0.509285L76.95 4.96177C63.1217 11.8915 53.5585 24.5072 50.4802 39.2094C43.8617 31.5931 35.7428 25.3835 26.5515 20.9911L13.6168 14.8089C11.7353 13.9095 9.48479 14.3275 8.05204 15.8448C6.61881 17.3621 6.32908 19.6309 7.33518 21.4596L8.19906 23.0302C17.0594 39.1355 23.7547 56.2137 28.2028 73.964C24.9395 71.5305 21.4374 69.401 17.7248 67.6267L6.8773 62.4424C4.99435 61.542 2.7448 61.961 1.31253 63.4788C-0.120223 64.9961 -0.409945 67.2654 0.596633 69.094L1.3207 70.4105C10.0642 86.3029 16.2892 103.329 19.8648 121.079H4.80552C2.15239 121.079 0.000854492 123.23 0.000854492 125.883V205.401C0.000854492 227.787 18.2139 246 40.6003 246H88.1665C110.553 246 128.766 227.787 128.766 205.401V125.883C128.766 123.23 126.615 121.079 123.961 121.079ZM116.454 69.8719L116.236 71.5852C114.044 88.8148 109.123 105.449 101.607 121.079H89.1673C94.0768 101.968 103.381 84.5261 116.454 69.8719ZM100.477 34.7531C92.6248 59.5687 87.3339 90.5579 85.6436 101.196C85.6393 101.224 85.6388 101.251 85.6345 101.279C83.0174 107.662 80.8894 114.276 79.274 121.079H63.9793C64.198 88.4905 77.554 57.3668 100.477 34.7531ZM59.0214 49.5674C59.0205 35.137 66.558 22.0717 78.8671 14.8507C74.8557 26.9201 72.7666 39.675 72.7666 52.3483V53.6874C72.7666 53.9886 72.7978 54.2826 72.8512 54.5685C71.391 57.0232 70.0034 59.5207 68.7081 62.0657C67.7303 63.9866 66.8035 65.9335 65.9228 67.9005C64.2777 61.9942 61.8999 56.2953 58.8215 50.9324C58.9498 50.4995 59.0214 50.0416 59.0214 49.5674ZM22.4065 29.6602L22.4079 29.6611C44.4887 40.2141 58.8081 62.7571 59.0219 87.2028C56.0185 98.2324 54.4378 109.65 54.3666 121.079H53.3706C52.8191 110.344 49.5389 99.9395 43.7834 90.8092C42.8186 89.2784 41.7837 87.801 40.6978 86.3673C37.152 66.6705 31.0184 47.6513 22.4065 29.6602ZM15.5752 77.3023C31.8726 85.9622 42.6111 102.698 43.7478 121.079H29.6615C26.7691 105.921 22.0495 91.2541 15.5752 77.3023ZM119.157 205.401C119.157 222.488 105.254 236.391 88.1665 236.391H40.6003C23.5125 236.391 9.61019 222.489 9.61019 205.401V152.309H75.6744C78.3275 152.309 80.4791 150.158 80.4791 147.504C80.4791 144.851 78.3275 142.7 75.6744 142.7H9.61019V130.688H83.0894C83.1082 130.688 83.1269 130.688 83.1457 130.688H104.582C104.587 130.688 104.593 130.689 104.598 130.689C104.603 130.689 104.607 130.688 104.611 130.688H119.157V205.401Z" fill="black" fill-opacity="0.38"/>
<path d="M244.976 172.887C244.065 171.726 242.671 171.047 241.195 171.047H215.17L215.169 135.561C215.169 133.591 214.973 131.63 214.604 129.705L232.219 117.845C236.437 115.005 239.628 110.779 241.204 105.946C244.586 95.5783 240.133 84.1864 230.617 78.859C230.557 78.8258 230.497 78.7936 230.436 78.7629C222.71 74.8601 213.6 75.7412 206.814 80.567L206.813 67.3811C206.813 63.3197 205.437 59.3198 202.937 56.1185C197.575 49.2516 188.04 47.1193 180.263 51.0496C180.202 51.0803 180.142 51.1125 180.082 51.1461C172.481 55.4031 168.925 64.5046 171.628 72.7868C172.887 76.6479 175.437 80.0236 178.807 82.2914L197.613 94.9489C197.346 96.3504 197.204 97.7778 197.205 99.212L197.206 107.252C194.144 105.817 190.836 104.871 187.369 104.482C184.736 104.187 182.355 106.086 182.06 108.723C181.765 111.36 183.663 113.737 186.3 114.032C190.967 114.554 195.227 116.519 198.596 119.647C198.669 119.721 198.747 119.789 198.824 119.858C199.589 120.588 200.306 121.378 200.969 122.227C203.929 126.018 205.559 130.754 205.559 135.562L205.561 171.047H199.609L172.799 153.003C168.809 150.318 165.79 146.321 164.298 141.749C162.617 136.599 162.922 131.043 165.155 126.104C166.248 123.686 165.174 120.84 162.756 119.747C160.338 118.653 157.492 119.727 156.399 122.145C153.175 129.274 152.737 137.295 155.164 144.731C157.317 151.331 161.675 157.1 167.433 160.975L182.399 171.047H149.906C148.431 171.047 147.036 171.726 146.126 172.886C145.215 174.047 144.889 175.563 145.24 176.996L161.261 242.339C161.788 244.488 163.714 246 165.927 246H225.174C227.387 246 229.313 244.489 229.841 242.339L245.862 176.996C246.213 175.563 245.886 174.048 244.976 172.887ZM184.173 74.3191C182.573 73.2418 181.361 71.6385 180.763 69.8051C179.491 65.9051 181.14 61.6227 184.689 59.5802C188.365 57.7766 192.839 58.799 195.363 62.0325C196.55 63.5532 197.204 65.453 197.204 67.3816L197.205 83.0905L184.173 74.3191ZM209.63 91.0249C213.504 86.0626 220.379 84.5035 226.013 87.2941C231.475 90.4075 234.022 96.9812 232.069 102.967C231.154 105.773 229.301 108.226 226.853 109.874L211.233 120.391C210.446 118.967 209.55 117.6 208.544 116.312C207.995 115.608 207.414 114.939 206.816 114.292L206.815 99.2096C206.814 96.2586 207.814 93.3523 209.63 91.0249ZM231.065 196.992H177.933C175.28 196.992 173.129 199.143 173.129 201.797C173.129 204.451 175.28 206.602 177.933 206.602H228.709L221.405 236.391H169.697L156.032 180.656H198.143H210.365H235.07L231.065 196.992Z" fill="black" fill-opacity="0.38"/>
</g>
<defs>
<clipPath id="clip0">
<rect width="246" height="246" fill="white"/>
</clipPath>
</defs>
</svg>
