<svg width="160" height="160" viewBox="0 0 160 160" fill="none" xmlns="http://www.w3.org/2000/svg">
<g clip-path="url(#clip0)">
<path d="M114.57 71.2787C113.728 69.7724 111.824 69.2359 110.317 70.078L110.152 70.1715C108.653 71.0258 108.129 72.934 108.984 74.4337C109.56 75.4452 110.615 76.0124 111.702 76.0124C112.226 76.0124 112.758 75.8802 113.245 75.6021L113.37 75.5318C114.876 74.689 115.414 72.7846 114.57 71.2787Z" fill="#D9A365" fill-opacity="0.74"/>
<path d="M63.459 93.7281C62.8781 93.1469 62.0719 92.8125 61.25 92.8125C60.4281 92.8125 59.6219 93.1469 59.0406 93.7281C58.4591 94.3094 58.125 95.1156 58.125 95.9375C58.125 96.7594 58.4594 97.5656 59.0406 98.1469C59.6219 98.7281 60.4281 99.0625 61.25 99.0625C62.0719 99.0625 62.8781 98.7281 63.459 98.1469C64.0406 97.5656 64.375 96.7594 64.375 95.9375C64.375 95.1156 64.0403 94.3094 63.459 93.7281Z" fill="#D9A365" fill-opacity="0.74"/>
<path d="M80.6257 78.7503H72.9773C77.451 68.7725 80.4163 58.2326 81.801 47.3482L83.1007 37.1327C83.2666 35.828 82.5982 34.5592 81.4282 33.9583C80.2576 33.357 78.8372 33.5536 77.8738 34.4483L76.8282 35.4192C72.4779 39.4602 68.5957 43.887 65.2098 48.6354C67.9538 35.462 71.482 22.1465 75.3173 13.7874L75.3332 13.7528C75.9254 12.4609 75.571 10.9321 74.4707 10.0325C73.371 9.13277 71.8026 9.0884 70.6532 9.92464C64.4451 14.4437 58.8595 19.8137 54.0705 25.818C54.9426 18.434 56.9689 11.1615 60.0667 4.43185C60.6214 3.22623 60.3545 1.80186 59.4007 0.879053C58.4467 -0.0434438 57.0148 -0.263443 55.8276 0.331242L50.0492 3.22717C41.0552 7.73434 34.8352 15.9396 32.833 25.5021C28.5284 20.5483 23.2478 16.5096 17.2697 13.6528L8.85688 9.63183C7.63314 9.04683 6.16939 9.31871 5.23752 10.3056C4.30534 11.2924 4.1169 12.7681 4.77127 13.9574L5.33314 14.979C11.0959 25.454 15.4506 36.5617 18.3437 48.1067C16.2212 46.5239 13.9434 45.1389 11.5287 43.9848L4.47346 40.613C3.24878 40.0273 1.78566 40.2998 0.854098 41.287C-0.0777731 42.2739 -0.26621 43.7498 0.388475 44.9392L0.859411 45.7954C6.54626 56.132 10.595 67.2057 12.9206 78.7503H3.12596C1.40035 78.7503 0.000976562 80.1494 0.000976562 81.8753V133.594C0.000976562 148.154 11.8469 160 26.4071 160H57.3445C71.9051 160 83.7507 148.154 83.7507 133.594V81.8753C83.7507 80.1494 82.3516 78.7503 80.6257 78.7503ZM75.7429 45.4451L75.601 46.5595C74.1754 57.7657 70.9745 68.5847 66.086 78.7503H57.9954C61.1886 66.3207 67.2404 54.9763 75.7429 45.4451ZM65.351 22.6037C60.2442 38.7439 56.8029 58.8994 55.7036 65.8188C55.7008 65.8366 55.7005 65.8544 55.6976 65.8722C53.9955 70.0241 52.6114 74.3256 51.5608 78.7506H41.613C41.7552 57.5548 50.442 37.3117 65.351 22.6037ZM38.3883 32.2389C38.3877 22.8533 43.2902 14.3556 51.2961 9.65902C48.687 17.509 47.3283 25.8049 47.3283 34.0477V34.9186C47.3283 35.1145 47.3486 35.3058 47.3833 35.4917C46.4336 37.0883 45.5311 38.7127 44.6886 40.368C44.0527 41.6173 43.4499 42.8836 42.8771 44.1629C41.8071 40.3214 40.2605 36.6148 38.2583 33.1267C38.3418 32.8452 38.3883 32.5474 38.3883 32.2389ZM14.5737 19.2912L14.5747 19.2918C28.9362 26.1555 38.2496 40.8176 38.3886 56.7173C36.4352 63.891 35.4071 71.3172 35.3608 78.7503H34.713C34.3543 71.7682 32.2209 65.0013 28.4774 59.0629C27.8499 58.0673 27.1768 57.1063 26.4706 56.1738C24.1643 43.3629 20.175 30.9927 14.5737 19.2912ZM10.1306 50.2779C20.7306 55.9104 27.7149 66.7954 28.4543 78.7503H19.2925C17.4112 68.8919 14.3415 59.3523 10.1306 50.2779ZM77.5007 133.594C77.5007 144.708 68.4585 153.75 57.3445 153.75H26.4071C15.2931 153.75 6.25095 144.708 6.25095 133.594V99.0627H49.2195C50.9452 99.0627 52.3445 97.6637 52.3445 95.9377C52.3445 94.2118 50.9452 92.8128 49.2195 92.8128H6.25095V85.0003H54.0423C54.0545 85.0003 54.0667 85.0003 54.0789 85.0003H68.021C68.0245 85.0003 68.0282 85.0009 68.0317 85.0009C68.0348 85.0009 68.0376 85.0003 68.0404 85.0003H77.5007V133.594Z" fill="#D9A365" fill-opacity="0.74"/>
<path d="M159.334 112.446C158.741 111.691 157.835 111.25 156.875 111.25H139.948L139.947 88.1697C139.947 86.8881 139.82 85.6128 139.579 84.3609L151.037 76.6469C153.78 74.8 155.856 72.0513 156.881 68.9079C159.08 62.1645 156.184 54.7551 149.995 51.2901C149.956 51.2686 149.917 51.2476 149.877 51.2276C144.852 48.6892 138.927 49.2623 134.513 52.4011L134.513 43.8248C134.513 41.1833 133.617 38.5817 131.991 36.4995C128.504 32.0333 122.303 30.6464 117.244 33.2027C117.204 33.2227 117.165 33.2436 117.126 33.2655C112.182 36.0342 109.87 41.9539 111.628 47.3408C112.447 49.852 114.105 52.0476 116.297 53.5226L128.529 61.7551C128.355 62.6666 128.263 63.5951 128.263 64.5279L128.264 69.7572C126.273 68.8238 124.121 68.2082 121.866 67.9557C120.153 67.7635 118.604 68.9985 118.413 70.7138C118.221 72.4291 119.456 73.975 121.171 74.1669C124.206 74.5066 126.977 75.7847 129.168 77.8188C129.215 77.8669 129.266 77.9113 129.317 77.956C129.814 78.431 130.28 78.9447 130.712 79.4969C132.637 81.9625 133.697 85.0428 133.697 88.1703L133.698 111.25H129.827L112.389 99.5137C109.794 97.7675 107.831 95.1678 106.86 92.1943C105.767 88.8447 105.965 85.2306 107.418 82.0184C108.129 80.446 107.43 78.5947 105.858 77.8838C104.285 77.1725 102.434 77.871 101.723 79.4438C99.6261 84.0806 99.3408 89.2975 100.919 94.134C102.32 98.4262 105.155 102.178 108.899 104.699L118.634 111.25H97.4998C96.5402 111.25 95.6333 111.691 95.0411 112.446C94.4489 113.201 94.2364 114.187 94.4649 115.119L104.885 157.619C105.228 159.017 106.481 160 107.92 160H146.455C147.894 160 149.147 159.017 149.49 157.619L159.91 115.119C160.138 114.187 159.926 113.201 159.334 112.446ZM119.787 48.3373C118.746 47.6367 117.959 46.5939 117.569 45.4014C116.742 42.8648 117.814 40.0795 120.123 38.7511C122.514 37.578 125.423 38.243 127.065 40.3461C127.838 41.3352 128.263 42.5708 128.263 43.8251L128.263 54.0423L119.787 48.3373ZM136.345 59.2029C138.864 55.9754 143.336 54.9614 147 56.7764C150.553 58.8013 152.209 63.077 150.939 66.9701C150.344 68.7951 149.139 70.3904 147.547 71.4625L137.387 78.3025C136.875 77.3766 136.293 76.4878 135.638 75.6497C135.281 75.1922 134.903 74.7569 134.514 74.336L134.513 64.5263C134.513 62.607 135.163 60.7166 136.345 59.2029ZM150.286 128.125H115.729C114.003 128.125 112.604 129.524 112.604 131.25C112.604 132.976 114.003 134.375 115.729 134.375H148.753L144.003 153.75H110.372L101.484 117.5H128.873H136.823H152.891L150.286 128.125Z" fill="#D9A365" fill-opacity="0.74"/>
</g>
<defs>
<clipPath id="clip0">
<rect width="160" height="160" fill="white"/>
</clipPath>
</defs>
</svg>
