<svg width="79" height="88" viewBox="0 0 79 88" fill="none" xmlns="http://www.w3.org/2000/svg">
<mask id="path-1-outside-1" maskUnits="userSpaceOnUse" x="11.4097" y="3" width="57" height="81" fill="black">
<rect fill="white" x="11.4097" y="3" width="57" height="81"/>
<path d="M67 28.796C66.733 27.995 65.9965 27.4658 65.1569 27.4658C65.14 27.4658 65.1231 27.4658 65.1056 27.4664C62.8683 27.523 60.8245 27.8545 58.9639 28.3723C59.5883 25.513 59.9958 22.342 59.9958 18.9252C59.9958 18.915 59.9952 18.9053 59.9952 18.8951C59.9928 18.7938 59.9289 16.3986 59.786 14.9412C59.7263 14.327 59.3894 13.7906 58.862 13.4706C58.3341 13.1493 57.7024 13.0981 57.1286 13.3277C55.3452 14.042 51.8668 15.9134 48.6079 20.4169C48.2306 20.9383 47.8678 21.4783 47.5194 22.0377C47.3314 20.2144 47.6972 19.8079 47.2729 17.9744C47.1276 17.347 46.5014 16.9546 45.8739 17.1005C45.2459 17.2457 44.8553 17.8726 45 18.5C45.6895 21.4799 45.3484 23.0876 45.4322 26.0006C43.4414 30.4878 42.169 35.8756 41.6338 42.1023H37.8753C37.29 35.3186 35.8664 30.087 34.0871 26.062C34.2704 19.5014 35.6289 12.2278 39.7557 6.5899C40.9564 8.23051 41.5135 8.33675 42.3374 10.3745C42.5791 10.9718 43.259 11.2606 43.8563 11.0189C44.453 10.7772 44.7417 10.0973 44.5 9.5C43.5284 7.09695 42.7633 6.66825 41.3029 4.76425C40.9299 4.27846 40.3663 4 39.7557 4C39.1452 4 38.581 4.27846 38.2086 4.76425C34.8201 9.18221 32.7172 15.0829 31.9969 22.0805C28.3944 16.2762 24.2085 14.0588 22.3829 13.3271C21.8091 13.0975 21.1768 13.1493 20.6495 13.4706C20.1221 13.7906 19.7852 14.327 19.7249 14.9412C19.582 16.3986 19.5187 18.7938 19.5163 18.8945C19.5157 18.9047 19.5157 18.915 19.5157 18.9252C19.5157 22.342 19.9226 25.513 20.547 28.3717C18.6864 27.8545 16.6426 27.523 14.4053 27.4664C14.3884 27.4658 14.3715 27.4658 14.3546 27.4658C13.515 27.4658 12.7785 27.995 12.5109 28.796C12.2391 29.6115 12.5266 30.4945 13.2269 30.9929C19.1662 35.2198 22.0912 39.3539 23.5046 42.1023H19.6785C18.417 42.1023 17.3905 43.1287 17.3905 44.3902V53.6938C17.3905 54.9553 18.417 55.9818 19.6785 55.9818H20.9785L23.5974 79.1305C23.8463 81.3365 25.6756 83 27.8514 83H51.6595C53.8353 83 55.6646 81.3365 55.9141 79.1311L56.9418 71.2898C57.0141 70.6497 56.5542 70.0723 55.9141 70C55.274 69.9265 54.6966 70.3876 54.6237 71.0276L53.5961 78.8689C53.4803 79.8942 52.6474 80.6675 51.6595 80.6675H27.8514C26.8635 80.6675 26.0312 79.8942 25.9148 78.8689L23.3261 55.9824H56.1854L55.6819 61.7378C55.6096 62.3779 56.0701 62.9553 56.7102 63.0276C57.3497 63.1024 57.9277 62.6401 58 62L58.533 55.9818H59.8324C61.0939 55.9818 62.1204 54.9553 62.1204 53.6938V44.3902C62.1204 43.1287 61.0939 42.1023 59.8324 42.1023H56.007C57.4203 39.3545 60.3453 35.2198 66.2846 30.9929C66.9849 30.4945 67.2724 29.6115 67 28.796ZM57.5101 15.7019C57.6084 17.0176 57.6578 18.7613 57.6626 18.9409C57.6608 22.7193 57.119 26.2019 56.3348 29.2685C52.4611 30.8446 49.5542 33.1977 47.5417 35.2915C46.1645 36.7236 45.0868 38.1442 44.2762 39.3593C46.5074 22.4011 54.3561 17.1442 57.5101 15.7019ZM21.8483 18.9409C21.8531 18.7613 21.9025 17.0176 22.0014 15.7019C25.1542 17.1442 33.0004 22.4023 35.2323 39.3557C34.4223 38.1412 33.3452 36.7224 31.9698 35.2915C29.9555 33.1965 27.0474 30.8422 23.1706 29.2661C22.3895 26.2025 21.8501 22.7218 21.8483 18.9409ZM15.6306 29.864C21.2546 30.298 26.1607 32.6432 30.2291 36.8472C32.1283 38.8102 33.4266 40.7775 34.1896 42.1023H26.0932C23.6703 36.6302 18.8913 32.3298 15.6306 29.864ZM59.7878 53.6492H19.7237V44.4354H59.7878V53.6492ZM53.4183 42.1023H45.3213C46.0849 40.7775 47.3826 38.8102 49.2824 36.8472C53.3507 32.6432 58.2563 30.298 63.8809 29.864C60.6196 32.3298 55.8412 36.6302 53.4183 42.1023Z"/>
</mask>
<path d="M67 28.796C66.733 27.995 65.9965 27.4658 65.1569 27.4658C65.14 27.4658 65.1231 27.4658 65.1056 27.4664C62.8683 27.523 60.8245 27.8545 58.9639 28.3723C59.5883 25.513 59.9958 22.342 59.9958 18.9252C59.9958 18.915 59.9952 18.9053 59.9952 18.8951C59.9928 18.7938 59.9289 16.3986 59.786 14.9412C59.7263 14.327 59.3894 13.7906 58.862 13.4706C58.3341 13.1493 57.7024 13.0981 57.1286 13.3277C55.3452 14.042 51.8668 15.9134 48.6079 20.4169C48.2306 20.9383 47.8678 21.4783 47.5194 22.0377C47.3314 20.2144 47.6972 19.8079 47.2729 17.9744C47.1276 17.347 46.5014 16.9546 45.8739 17.1005C45.2459 17.2457 44.8553 17.8726 45 18.5C45.6895 21.4799 45.3484 23.0876 45.4322 26.0006C43.4414 30.4878 42.169 35.8756 41.6338 42.1023H37.8753C37.29 35.3186 35.8664 30.087 34.0871 26.062C34.2704 19.5014 35.6289 12.2278 39.7557 6.5899C40.9564 8.23051 41.5135 8.33675 42.3374 10.3745C42.5791 10.9718 43.259 11.2606 43.8563 11.0189C44.453 10.7772 44.7417 10.0973 44.5 9.5C43.5284 7.09695 42.7633 6.66825 41.3029 4.76425C40.9299 4.27846 40.3663 4 39.7557 4C39.1452 4 38.581 4.27846 38.2086 4.76425C34.8201 9.18221 32.7172 15.0829 31.9969 22.0805C28.3944 16.2762 24.2085 14.0588 22.3829 13.3271C21.8091 13.0975 21.1768 13.1493 20.6495 13.4706C20.1221 13.7906 19.7852 14.327 19.7249 14.9412C19.582 16.3986 19.5187 18.7938 19.5163 18.8945C19.5157 18.9047 19.5157 18.915 19.5157 18.9252C19.5157 22.342 19.9226 25.513 20.547 28.3717C18.6864 27.8545 16.6426 27.523 14.4053 27.4664C14.3884 27.4658 14.3715 27.4658 14.3546 27.4658C13.515 27.4658 12.7785 27.995 12.5109 28.796C12.2391 29.6115 12.5266 30.4945 13.2269 30.9929C19.1662 35.2198 22.0912 39.3539 23.5046 42.1023H19.6785C18.417 42.1023 17.3905 43.1287 17.3905 44.3902V53.6938C17.3905 54.9553 18.417 55.9818 19.6785 55.9818H20.9785L23.5974 79.1305C23.8463 81.3365 25.6756 83 27.8514 83H51.6595C53.8353 83 55.6646 81.3365 55.9141 79.1311L56.9418 71.2898C57.0141 70.6497 56.5542 70.0723 55.9141 70C55.274 69.9265 54.6966 70.3876 54.6237 71.0276L53.5961 78.8689C53.4803 79.8942 52.6474 80.6675 51.6595 80.6675H27.8514C26.8635 80.6675 26.0312 79.8942 25.9148 78.8689L23.3261 55.9824H56.1854L55.6819 61.7378C55.6096 62.3779 56.0701 62.9553 56.7102 63.0276C57.3497 63.1024 57.9277 62.6401 58 62L58.533 55.9818H59.8324C61.0939 55.9818 62.1204 54.9553 62.1204 53.6938V44.3902C62.1204 43.1287 61.0939 42.1023 59.8324 42.1023H56.007C57.4203 39.3545 60.3453 35.2198 66.2846 30.9929C66.9849 30.4945 67.2724 29.6115 67 28.796ZM57.5101 15.7019C57.6084 17.0176 57.6578 18.7613 57.6626 18.9409C57.6608 22.7193 57.119 26.2019 56.3348 29.2685C52.4611 30.8446 49.5542 33.1977 47.5417 35.2915C46.1645 36.7236 45.0868 38.1442 44.2762 39.3593C46.5074 22.4011 54.3561 17.1442 57.5101 15.7019ZM21.8483 18.9409C21.8531 18.7613 21.9025 17.0176 22.0014 15.7019C25.1542 17.1442 33.0004 22.4023 35.2323 39.3557C34.4223 38.1412 33.3452 36.7224 31.9698 35.2915C29.9555 33.1965 27.0474 30.8422 23.1706 29.2661C22.3895 26.2025 21.8501 22.7218 21.8483 18.9409ZM15.6306 29.864C21.2546 30.298 26.1607 32.6432 30.2291 36.8472C32.1283 38.8102 33.4266 40.7775 34.1896 42.1023H26.0932C23.6703 36.6302 18.8913 32.3298 15.6306 29.864ZM59.7878 53.6492H19.7237V44.4354H59.7878V53.6492ZM53.4183 42.1023H45.3213C46.0849 40.7775 47.3826 38.8102 49.2824 36.8472C53.3507 32.6432 58.2563 30.298 63.8809 29.864C60.6196 32.3298 55.8412 36.6302 53.4183 42.1023Z" fill="#B68449" fill-opacity="0.71"/>
<path d="M67 28.796C66.733 27.995 65.9965 27.4658 65.1569 27.4658C65.14 27.4658 65.1231 27.4658 65.1056 27.4664C62.8683 27.523 60.8245 27.8545 58.9639 28.3723C59.5883 25.513 59.9958 22.342 59.9958 18.9252C59.9958 18.915 59.9952 18.9053 59.9952 18.8951C59.9928 18.7938 59.9289 16.3986 59.786 14.9412C59.7263 14.327 59.3894 13.7906 58.862 13.4706C58.3341 13.1493 57.7024 13.0981 57.1286 13.3277C55.3452 14.042 51.8668 15.9134 48.6079 20.4169C48.2306 20.9383 47.8678 21.4783 47.5194 22.0377C47.3314 20.2144 47.6972 19.8079 47.2729 17.9744C47.1276 17.347 46.5014 16.9546 45.8739 17.1005C45.2459 17.2457 44.8553 17.8726 45 18.5C45.6895 21.4799 45.3484 23.0876 45.4322 26.0006C43.4414 30.4878 42.169 35.8756 41.6338 42.1023H37.8753C37.29 35.3186 35.8664 30.087 34.0871 26.062C34.2704 19.5014 35.6289 12.2278 39.7557 6.5899C40.9564 8.23051 41.5135 8.33675 42.3374 10.3745C42.5791 10.9718 43.259 11.2606 43.8563 11.0189C44.453 10.7772 44.7417 10.0973 44.5 9.5C43.5284 7.09695 42.7633 6.66825 41.3029 4.76425C40.9299 4.27846 40.3663 4 39.7557 4C39.1452 4 38.581 4.27846 38.2086 4.76425C34.8201 9.18221 32.7172 15.0829 31.9969 22.0805C28.3944 16.2762 24.2085 14.0588 22.3829 13.3271C21.8091 13.0975 21.1768 13.1493 20.6495 13.4706C20.1221 13.7906 19.7852 14.327 19.7249 14.9412C19.582 16.3986 19.5187 18.7938 19.5163 18.8945C19.5157 18.9047 19.5157 18.915 19.5157 18.9252C19.5157 22.342 19.9226 25.513 20.547 28.3717C18.6864 27.8545 16.6426 27.523 14.4053 27.4664C14.3884 27.4658 14.3715 27.4658 14.3546 27.4658C13.515 27.4658 12.7785 27.995 12.5109 28.796C12.2391 29.6115 12.5266 30.4945 13.2269 30.9929C19.1662 35.2198 22.0912 39.3539 23.5046 42.1023H19.6785C18.417 42.1023 17.3905 43.1287 17.3905 44.3902V53.6938C17.3905 54.9553 18.417 55.9818 19.6785 55.9818H20.9785L23.5974 79.1305C23.8463 81.3365 25.6756 83 27.8514 83H51.6595C53.8353 83 55.6646 81.3365 55.9141 79.1311L56.9418 71.2898C57.0141 70.6497 56.5542 70.0723 55.9141 70C55.274 69.9265 54.6966 70.3876 54.6237 71.0276L53.5961 78.8689C53.4803 79.8942 52.6474 80.6675 51.6595 80.6675H27.8514C26.8635 80.6675 26.0312 79.8942 25.9148 78.8689L23.3261 55.9824H56.1854L55.6819 61.7378C55.6096 62.3779 56.0701 62.9553 56.7102 63.0276C57.3497 63.1024 57.9277 62.6401 58 62L58.533 55.9818H59.8324C61.0939 55.9818 62.1204 54.9553 62.1204 53.6938V44.3902C62.1204 43.1287 61.0939 42.1023 59.8324 42.1023H56.007C57.4203 39.3545 60.3453 35.2198 66.2846 30.9929C66.9849 30.4945 67.2724 29.6115 67 28.796ZM57.5101 15.7019C57.6084 17.0176 57.6578 18.7613 57.6626 18.9409C57.6608 22.7193 57.119 26.2019 56.3348 29.2685C52.4611 30.8446 49.5542 33.1977 47.5417 35.2915C46.1645 36.7236 45.0868 38.1442 44.2762 39.3593C46.5074 22.4011 54.3561 17.1442 57.5101 15.7019ZM21.8483 18.9409C21.8531 18.7613 21.9025 17.0176 22.0014 15.7019C25.1542 17.1442 33.0004 22.4023 35.2323 39.3557C34.4223 38.1412 33.3452 36.7224 31.9698 35.2915C29.9555 33.1965 27.0474 30.8422 23.1706 29.2661C22.3895 26.2025 21.8501 22.7218 21.8483 18.9409ZM15.6306 29.864C21.2546 30.298 26.1607 32.6432 30.2291 36.8472C32.1283 38.8102 33.4266 40.7775 34.1896 42.1023H26.0932C23.6703 36.6302 18.8913 32.3298 15.6306 29.864ZM59.7878 53.6492H19.7237V44.4354H59.7878V53.6492ZM53.4183 42.1023H45.3213C46.0849 40.7775 47.3826 38.8102 49.2824 36.8472C53.3507 32.6432 58.2563 30.298 63.8809 29.864C60.6196 32.3298 55.8412 36.6302 53.4183 42.1023Z" stroke="#B68449" stroke-opacity="0.71" mask="url(#path-1-outside-1)"/>
<path d="M57.8291 66.418C57.8291 67.2464 57.1575 67.918 56.3291 67.918C55.5007 67.918 54.8291 67.2464 54.8291 66.418C54.8291 65.5895 55.5007 64.918 56.3291 64.918C57.1575 64.918 57.8291 65.5895 57.8291 66.418Z" fill="#B68449" fill-opacity="0.71"/>
<path d="M46.5 14C46.5 14.8284 45.8284 15.5 45 15.5C44.1716 15.5 43.5 14.8284 43.5 14C43.5 13.1716 44.1716 12.5 45 12.5C45.8284 12.5 46.5 13.1716 46.5 14Z" fill="#B68449" fill-opacity="0.71"/>
</svg>
