<svg width="137" height="137" viewBox="0 0 137 137" fill="none" xmlns="http://www.w3.org/2000/svg">
<path d="M123.662 18.0374C124.21 9.5335 122.229 3.53627 122.144 3.28502C121.851 2.41378 121.135 1.7641 120.263 1.54442L120.222 1.53238C116.084 0.324802 94.4915 -4.74714 75.7166 14.0277C67.9097 21.8346 64.3188 30.1525 62.7645 37.1216C61.6115 35.2924 60.1708 33.4571 58.3759 31.6625C46.7853 20.0718 33.416 23.2134 30.8531 23.9613L30.8478 23.9629C29.9838 24.1874 29.2768 24.8336 28.9857 25.6984C28.9062 25.9347 28.2025 28.1037 28.0152 31.442C27.9322 32.918 29.0617 34.1809 30.5371 34.2639C32.0155 34.3474 33.2763 33.2174 33.359 31.7419C33.4269 30.5282 33.5816 29.5106 33.7277 28.7676C37.4345 28.0274 46.4797 27.3355 54.591 35.4474C60.8577 41.7141 61.8684 48.5258 61.688 52.9347L51.439 42.6856C50.3938 41.6407 48.6995 41.6407 47.6541 42.6856C46.6089 43.7308 46.6089 45.4251 47.6541 46.4705L57.8839 56.7003C57.6733 56.7081 57.4587 56.7139 57.2377 56.7161H57.0008C52.5871 56.7126 46.2399 55.4462 40.4164 49.6223C40.0391 49.2453 39.673 48.8578 39.3278 48.4707C38.344 47.3672 36.6523 47.27 35.5494 48.2542C34.4459 49.2375 34.349 50.9292 35.3329 52.0327C35.7455 52.4953 36.1822 52.9574 36.6315 53.4069C37.9057 54.6809 39.1997 55.7745 40.498 56.7158H15.9182C14.4401 56.7158 13.2422 57.9143 13.2422 59.3919V74.3781C13.2422 75.8559 14.4404 77.0542 15.9182 77.0542H17.6273L31.7019 134.956C31.9935 136.155 33.0679 137 34.3022 137H94.4099C95.6445 137 96.7185 136.155 97.0102 134.956L111.085 77.0542H112.794C114.272 77.0542 115.47 75.8557 115.47 74.3781V59.3919C115.47 57.914 114.272 56.7158 112.794 56.7158H98.107C101.955 54.6584 105.898 51.8512 109.719 48.0305C120.329 37.4213 123.157 25.8643 123.662 18.0374ZM92.307 131.648H36.4062L23.1359 77.0544H105.577L92.307 131.648ZM110.119 62.0682V71.7023H108.982H19.7312H18.5946V62.0682H110.119ZM79.6067 56.6163C76.2986 56.8477 73.4063 56.6385 71.201 56.3308L91.1724 36.3593C92.2176 35.3141 92.2176 33.6198 91.1724 32.5744C90.1273 31.5295 88.433 31.5295 87.3876 32.5744L67.4177 52.5443C66.4274 45.3555 66.5122 30.8011 79.501 17.8126C94.6895 2.62383 111.8 4.99698 117.433 6.33193C118.597 11.2543 121.33 28.8505 105.934 44.2459C98.4236 51.7571 89.5654 55.919 79.6067 56.6163Z" fill="#A45F0D" fill-opacity="0.35"/>
<path d="M34.6654 40.767L34.6373 40.6883C34.1442 39.295 32.615 38.5651 31.2214 39.0585C29.8279 39.5516 29.0985 41.0811 29.5916 42.4744L29.6269 42.5729C30.0184 43.6659 31.0481 44.3469 32.1459 44.3469C32.4456 44.3469 32.7504 44.2963 33.0487 44.1893C34.4404 43.6905 35.1639 42.1584 34.6654 40.767Z" fill="#A45F0D" fill-opacity="0.35"/>
<path d="M91.6964 94.4107C90.2593 94.0605 88.813 94.9427 88.4638 96.3788L81.7706 123.914C81.4217 125.35 82.3028 126.797 83.7389 127.147C83.9511 127.198 84.1638 127.223 84.3731 127.223C85.5791 127.223 86.674 126.402 86.9713 125.178L93.6645 97.6433C94.0139 96.207 93.1325 94.7599 91.6964 94.4107Z" fill="#A45F0D" fill-opacity="0.35"/>
<path d="M95.6784 83.9188C95.1807 83.4187 94.4928 83.1348 93.7864 83.1348C93.0827 83.1348 92.392 83.4187 91.8944 83.9188C91.3967 84.4165 91.1104 85.1047 91.1104 85.8108C91.1104 86.5145 91.3967 87.2052 91.8944 87.7029C92.392 88.2003 93.0827 88.4869 93.7864 88.4869C94.4901 88.4869 95.1807 88.2005 95.6784 87.7029C96.1761 87.2052 96.4625 86.5145 96.4625 85.8108C96.4627 85.1041 96.1764 84.4165 95.6784 83.9188Z" fill="#A45F0D" fill-opacity="0.35"/>
</svg>
