<svg width="79" height="86" viewBox="0 0 79 86" fill="none" xmlns="http://www.w3.org/2000/svg">
<mask id="path-1-outside-1" maskUnits="userSpaceOnUse" x="9.90503" y="2.3916" width="60" height="81" fill="black">
<rect fill="white" x="9.90503" y="2.3916" width="60" height="81"/>
<path d="M64.4523 42.5344H59.0389C64.0101 33.5841 66.3829 25.352 66.0942 18.0413C66.0556 17.0651 65.4295 16.2366 64.4994 15.9303C63.5641 15.6224 62.5631 15.9192 61.9486 16.6856L56.9246 22.9526C57.9764 19.3859 58.4673 16.0028 58.3885 12.8399C58.3629 11.8179 57.7186 10.95 56.7469 10.6289C55.7735 10.3075 54.7384 10.621 54.1082 11.4275L46.9005 20.6485C45.4045 14.3571 43.3255 8.25848 42.1369 4.97112C41.7904 4.01163 40.9068 3.3916 39.8864 3.3916C38.866 3.3916 37.9825 4.01163 37.6357 4.97097C36.4269 8.31431 34.3146 14.5167 32.8165 20.8843L25.3925 11.5292C24.756 10.7273 23.7179 10.4212 22.7479 10.75C21.7787 11.0782 21.1407 11.9507 21.1227 12.973C21.0648 16.2688 21.6262 19.7968 22.7973 23.5175L17.4348 16.9701C16.8121 16.2101 15.808 15.9243 14.8762 16.2415C13.9492 16.5575 13.3321 17.3926 13.3037 18.3692C13.0939 25.6108 15.5047 33.7325 20.4727 42.5344H15.3205C12.8857 42.5344 10.905 44.5144 10.905 46.9483C10.905 49.3821 12.8857 51.3623 15.3205 51.3623H17.2406L22.5638 78.6566C22.983 80.8062 24.8775 82.3663 27.068 82.3663H52.7049C54.8955 82.3663 56.7898 80.8062 57.209 78.6566L62.5322 51.3623H64.4523C66.8869 51.3623 68.8678 49.3821 68.8678 46.9483C68.8678 44.5144 66.8871 42.5344 64.4523 42.5344ZM55.9319 12.8522C55.9512 12.8274 55.9668 12.8078 56.0208 12.8258C56.0736 12.8431 56.0742 12.8661 56.075 12.8979C56.1941 17.6636 54.8984 23.0186 52.2243 28.8163L50.3909 31.0638C49.9913 31.5623 50.0715 32.2902 50.5701 32.6899C51.0688 33.0895 51.7972 33.0091 52.1968 32.5106C53.0458 31.4515 61.5712 20.8562 63.7545 18.1327C63.7574 18.1292 63.7597 18.1264 63.7608 18.125C63.767 18.1253 63.7755 18.1275 63.7819 18.1303C63.7819 18.1303 63.7818 18.1317 63.7818 18.1327C64.0652 25.3144 61.5754 33.5214 56.3801 42.5345H44.1929L46.2738 39.8441C46.6734 39.3456 46.5932 38.6175 46.0945 38.218C45.5959 37.8182 44.8675 37.8988 44.4679 38.3972L41.2273 42.5345H38.3724L35.4856 39.0098C37.5507 36.3678 54.8922 14.1823 55.9319 12.8522ZM39.812 5.75741C39.823 5.72718 39.831 5.70512 39.8862 5.70512C39.9415 5.70512 39.9495 5.72702 39.9606 5.75756C41.2466 9.31406 43.5897 16.2076 45.0623 23.0002L39.8188 29.7084L34.6643 23.2129C36.1327 16.3586 38.5068 9.36727 39.812 5.75741ZM23.4366 13.0137C23.4371 12.9821 23.4375 12.9591 23.4903 12.9412C23.5446 12.9235 23.56 12.9426 23.5795 12.967C25.0426 14.8107 36.8288 29.6627 38.3531 31.5837L33.9829 37.1747L27.6776 29.4761C24.7767 23.4787 23.3499 17.9404 23.4366 13.0137ZM15.6178 18.4329C15.6252 18.4293 15.6335 18.4262 15.6334 18.4246C15.6334 18.4246 15.6372 18.4275 15.644 18.4357C18.0408 21.3621 33.3597 40.0658 35.3813 42.5342H23.1419C17.9446 33.6668 15.4131 25.5648 15.6178 18.4329ZM64.4523 49.0488C62.6881 49.0488 37.1044 49.0488 35.326 49.0488C34.6869 49.0488 34.1688 49.5665 34.1688 50.2055C34.1688 50.8445 34.6869 51.3623 35.326 51.3623H60.1745L54.9376 78.2138C54.7298 79.2792 53.7908 80.0527 52.7049 80.0527H27.068C25.982 80.0527 25.043 79.2792 24.8352 78.2138L19.5983 51.3623H25.6267C26.2657 51.3623 26.7838 50.8445 26.7838 50.2055C26.7838 49.5665 26.2657 49.0488 25.6267 49.0488C23.7186 49.0488 18.1406 49.0488 15.3205 49.0488C14.1618 49.0488 13.2193 48.1066 13.2193 46.9483C13.2193 45.7901 14.1618 44.8479 15.3205 44.8479H64.4525C65.6111 44.8479 66.5536 45.7901 66.5536 46.9483C66.5535 48.1066 65.611 49.0488 64.4523 49.0488Z"/>
</mask>
<path d="M64.4523 42.5344H59.0389C64.0101 33.5841 66.3829 25.352 66.0942 18.0413C66.0556 17.0651 65.4295 16.2366 64.4994 15.9303C63.5641 15.6224 62.5631 15.9192 61.9486 16.6856L56.9246 22.9526C57.9764 19.3859 58.4673 16.0028 58.3885 12.8399C58.3629 11.8179 57.7186 10.95 56.7469 10.6289C55.7735 10.3075 54.7384 10.621 54.1082 11.4275L46.9005 20.6485C45.4045 14.3571 43.3255 8.25848 42.1369 4.97112C41.7904 4.01163 40.9068 3.3916 39.8864 3.3916C38.866 3.3916 37.9825 4.01163 37.6357 4.97097C36.4269 8.31431 34.3146 14.5167 32.8165 20.8843L25.3925 11.5292C24.756 10.7273 23.7179 10.4212 22.7479 10.75C21.7787 11.0782 21.1407 11.9507 21.1227 12.973C21.0648 16.2688 21.6262 19.7968 22.7973 23.5175L17.4348 16.9701C16.8121 16.2101 15.808 15.9243 14.8762 16.2415C13.9492 16.5575 13.3321 17.3926 13.3037 18.3692C13.0939 25.6108 15.5047 33.7325 20.4727 42.5344H15.3205C12.8857 42.5344 10.905 44.5144 10.905 46.9483C10.905 49.3821 12.8857 51.3623 15.3205 51.3623H17.2406L22.5638 78.6566C22.983 80.8062 24.8775 82.3663 27.068 82.3663H52.7049C54.8955 82.3663 56.7898 80.8062 57.209 78.6566L62.5322 51.3623H64.4523C66.8869 51.3623 68.8678 49.3821 68.8678 46.9483C68.8678 44.5144 66.8871 42.5344 64.4523 42.5344ZM55.9319 12.8522C55.9512 12.8274 55.9668 12.8078 56.0208 12.8258C56.0736 12.8431 56.0742 12.8661 56.075 12.8979C56.1941 17.6636 54.8984 23.0186 52.2243 28.8163L50.3909 31.0638C49.9913 31.5623 50.0715 32.2902 50.5701 32.6899C51.0688 33.0895 51.7972 33.0091 52.1968 32.5106C53.0458 31.4515 61.5712 20.8562 63.7545 18.1327C63.7574 18.1292 63.7597 18.1264 63.7608 18.125C63.767 18.1253 63.7755 18.1275 63.7819 18.1303C63.7819 18.1303 63.7818 18.1317 63.7818 18.1327C64.0652 25.3144 61.5754 33.5214 56.3801 42.5345H44.1929L46.2738 39.8441C46.6734 39.3456 46.5932 38.6175 46.0945 38.218C45.5959 37.8182 44.8675 37.8988 44.4679 38.3972L41.2273 42.5345H38.3724L35.4856 39.0098C37.5507 36.3678 54.8922 14.1823 55.9319 12.8522ZM39.812 5.75741C39.823 5.72718 39.831 5.70512 39.8862 5.70512C39.9415 5.70512 39.9495 5.72702 39.9606 5.75756C41.2466 9.31406 43.5897 16.2076 45.0623 23.0002L39.8188 29.7084L34.6643 23.2129C36.1327 16.3586 38.5068 9.36727 39.812 5.75741ZM23.4366 13.0137C23.4371 12.9821 23.4375 12.9591 23.4903 12.9412C23.5446 12.9235 23.56 12.9426 23.5795 12.967C25.0426 14.8107 36.8288 29.6627 38.3531 31.5837L33.9829 37.1747L27.6776 29.4761C24.7767 23.4787 23.3499 17.9404 23.4366 13.0137ZM15.6178 18.4329C15.6252 18.4293 15.6335 18.4262 15.6334 18.4246C15.6334 18.4246 15.6372 18.4275 15.644 18.4357C18.0408 21.3621 33.3597 40.0658 35.3813 42.5342H23.1419C17.9446 33.6668 15.4131 25.5648 15.6178 18.4329ZM64.4523 49.0488C62.6881 49.0488 37.1044 49.0488 35.326 49.0488C34.6869 49.0488 34.1688 49.5665 34.1688 50.2055C34.1688 50.8445 34.6869 51.3623 35.326 51.3623H60.1745L54.9376 78.2138C54.7298 79.2792 53.7908 80.0527 52.7049 80.0527H27.068C25.982 80.0527 25.043 79.2792 24.8352 78.2138L19.5983 51.3623H25.6267C26.2657 51.3623 26.7838 50.8445 26.7838 50.2055C26.7838 49.5665 26.2657 49.0488 25.6267 49.0488C23.7186 49.0488 18.1406 49.0488 15.3205 49.0488C14.1618 49.0488 13.2193 48.1066 13.2193 46.9483C13.2193 45.7901 14.1618 44.8479 15.3205 44.8479H64.4525C65.6111 44.8479 66.5536 45.7901 66.5536 46.9483C66.5535 48.1066 65.611 49.0488 64.4523 49.0488Z" fill="black" fill-opacity="0.16"/>
<path d="M64.4523 42.5344H59.0389C64.0101 33.5841 66.3829 25.352 66.0942 18.0413C66.0556 17.0651 65.4295 16.2366 64.4994 15.9303C63.5641 15.6224 62.5631 15.9192 61.9486 16.6856L56.9246 22.9526C57.9764 19.3859 58.4673 16.0028 58.3885 12.8399C58.3629 11.8179 57.7186 10.95 56.7469 10.6289C55.7735 10.3075 54.7384 10.621 54.1082 11.4275L46.9005 20.6485C45.4045 14.3571 43.3255 8.25848 42.1369 4.97112C41.7904 4.01163 40.9068 3.3916 39.8864 3.3916C38.866 3.3916 37.9825 4.01163 37.6357 4.97097C36.4269 8.31431 34.3146 14.5167 32.8165 20.8843L25.3925 11.5292C24.756 10.7273 23.7179 10.4212 22.7479 10.75C21.7787 11.0782 21.1407 11.9507 21.1227 12.973C21.0648 16.2688 21.6262 19.7968 22.7973 23.5175L17.4348 16.9701C16.8121 16.2101 15.808 15.9243 14.8762 16.2415C13.9492 16.5575 13.3321 17.3926 13.3037 18.3692C13.0939 25.6108 15.5047 33.7325 20.4727 42.5344H15.3205C12.8857 42.5344 10.905 44.5144 10.905 46.9483C10.905 49.3821 12.8857 51.3623 15.3205 51.3623H17.2406L22.5638 78.6566C22.983 80.8062 24.8775 82.3663 27.068 82.3663H52.7049C54.8955 82.3663 56.7898 80.8062 57.209 78.6566L62.5322 51.3623H64.4523C66.8869 51.3623 68.8678 49.3821 68.8678 46.9483C68.8678 44.5144 66.8871 42.5344 64.4523 42.5344ZM55.9319 12.8522C55.9512 12.8274 55.9668 12.8078 56.0208 12.8258C56.0736 12.8431 56.0742 12.8661 56.075 12.8979C56.1941 17.6636 54.8984 23.0186 52.2243 28.8163L50.3909 31.0638C49.9913 31.5623 50.0715 32.2902 50.5701 32.6899C51.0688 33.0895 51.7972 33.0091 52.1968 32.5106C53.0458 31.4515 61.5712 20.8562 63.7545 18.1327C63.7574 18.1292 63.7597 18.1264 63.7608 18.125C63.767 18.1253 63.7755 18.1275 63.7819 18.1303C63.7819 18.1303 63.7818 18.1317 63.7818 18.1327C64.0652 25.3144 61.5754 33.5214 56.3801 42.5345H44.1929L46.2738 39.8441C46.6734 39.3456 46.5932 38.6175 46.0945 38.218C45.5959 37.8182 44.8675 37.8988 44.4679 38.3972L41.2273 42.5345H38.3724L35.4856 39.0098C37.5507 36.3678 54.8922 14.1823 55.9319 12.8522ZM39.812 5.75741C39.823 5.72718 39.831 5.70512 39.8862 5.70512C39.9415 5.70512 39.9495 5.72702 39.9606 5.75756C41.2466 9.31406 43.5897 16.2076 45.0623 23.0002L39.8188 29.7084L34.6643 23.2129C36.1327 16.3586 38.5068 9.36727 39.812 5.75741ZM23.4366 13.0137C23.4371 12.9821 23.4375 12.9591 23.4903 12.9412C23.5446 12.9235 23.56 12.9426 23.5795 12.967C25.0426 14.8107 36.8288 29.6627 38.3531 31.5837L33.9829 37.1747L27.6776 29.4761C24.7767 23.4787 23.3499 17.9404 23.4366 13.0137ZM15.6178 18.4329C15.6252 18.4293 15.6335 18.4262 15.6334 18.4246C15.6334 18.4246 15.6372 18.4275 15.644 18.4357C18.0408 21.3621 33.3597 40.0658 35.3813 42.5342H23.1419C17.9446 33.6668 15.4131 25.5648 15.6178 18.4329ZM64.4523 49.0488C62.6881 49.0488 37.1044 49.0488 35.326 49.0488C34.6869 49.0488 34.1688 49.5665 34.1688 50.2055C34.1688 50.8445 34.6869 51.3623 35.326 51.3623H60.1745L54.9376 78.2138C54.7298 79.2792 53.7908 80.0527 52.7049 80.0527H27.068C25.982 80.0527 25.043 79.2792 24.8352 78.2138L19.5983 51.3623H25.6267C26.2657 51.3623 26.7838 50.8445 26.7838 50.2055C26.7838 49.5665 26.2657 49.0488 25.6267 49.0488C23.7186 49.0488 18.1406 49.0488 15.3205 49.0488C14.1618 49.0488 13.2193 48.1066 13.2193 46.9483C13.2193 45.7901 14.1618 44.8479 15.3205 44.8479H64.4525C65.6111 44.8479 66.5536 45.7901 66.5536 46.9483C66.5535 48.1066 65.611 49.0488 64.4523 49.0488Z" stroke="black" stroke-opacity="0.16" stroke-width="1.4" mask="url(#path-1-outside-1)"/>
<mask id="path-2-outside-2" maskUnits="userSpaceOnUse" x="45.7961" y="33.1982" width="5" height="5" fill="black">
<rect fill="white" x="45.7961" y="33.1982" width="5" height="5"/>
<path d="M49.1177 35.3586C49.1177 35.9995 48.598 36.519 47.9569 36.519C47.3158 36.519 46.7961 35.9995 46.7961 35.3586C46.7961 34.7178 47.3158 34.1982 47.9569 34.1982C48.598 34.1982 49.1177 34.7178 49.1177 35.3586Z"/>
</mask>
<path d="M49.1177 35.3586C49.1177 35.9995 48.598 36.519 47.9569 36.519C47.3158 36.519 46.7961 35.9995 46.7961 35.3586C46.7961 34.7178 47.3158 34.1982 47.9569 34.1982C48.598 34.1982 49.1177 34.7178 49.1177 35.3586Z" fill="black" fill-opacity="0.16"/>
<path d="M49.1177 35.3586C49.1177 35.9995 48.598 36.519 47.9569 36.519C47.3158 36.519 46.7961 35.9995 46.7961 35.3586C46.7961 34.7178 47.3158 34.1982 47.9569 34.1982C48.598 34.1982 49.1177 34.7178 49.1177 35.3586Z" stroke="black" stroke-opacity="0.16" stroke-width="1.4" mask="url(#path-2-outside-2)"/>
<ellipse cx="30.483" cy="50.3381" rx="1.16077" ry="1.16039" fill="black" fill-opacity="0.16"/>
<path d="M30.483 51.8485C31.3173 51.8485 31.9938 51.1724 31.9938 50.3381C31.9938 49.5039 31.3173 48.8277 30.483 48.8277C29.6488 48.8277 28.9723 49.5039 28.9723 50.3381C28.9723 51.1724 29.6488 51.8485 30.483 51.8485Z" stroke="black" stroke-opacity="0.16" stroke-width="0.7"/>
</svg>
