<svg width="157" height="171" viewBox="0 0 157 171" fill="none" xmlns="http://www.w3.org/2000/svg">
<path d="M128.089 84.5745H117.33C127.21 66.7781 131.925 50.4096 131.352 35.8732C131.275 33.9322 130.031 32.2847 128.182 31.6757C126.323 31.0635 124.334 31.6536 123.113 33.1775L113.129 45.6386C115.219 38.5468 116.194 31.8198 116.038 25.5308C115.987 23.4988 114.706 21.7731 112.775 21.1346C110.841 20.4955 108.784 21.119 107.531 22.7226L93.2071 41.0572C90.2342 28.5476 86.1025 16.4213 83.7403 9.88481C83.0517 7.97698 81.2957 6.74414 79.2677 6.74414C77.2398 6.74414 75.4841 7.97698 74.7948 9.8845C72.3925 16.5323 68.1946 28.865 65.2174 41.5261L50.4634 22.9247C49.1986 21.3303 47.1354 20.7215 45.2077 21.3753C43.2815 22.028 42.0137 23.7628 41.9778 25.7955C41.8628 32.3488 42.9786 39.3637 45.3058 46.762L34.6488 33.7433C33.4113 32.232 31.4158 31.6637 29.5638 32.2945C27.7217 32.9229 26.4952 34.5833 26.4388 36.5251C26.0218 50.9242 30.813 67.0731 40.686 84.5745H30.4469C25.6082 84.5745 21.6719 88.5116 21.6719 93.351C21.6719 98.1903 25.6082 102.128 30.4469 102.128H34.2627L44.8419 156.399C45.675 160.673 49.4399 163.775 53.7932 163.775H104.743C109.096 163.775 112.861 160.673 113.694 156.399L124.273 102.128H128.089C132.927 102.128 136.864 98.1903 136.864 93.351C136.864 88.5116 132.927 84.5745 128.089 84.5745ZM111.156 25.5553C111.194 25.506 111.225 25.467 111.332 25.5029C111.437 25.5372 111.438 25.5829 111.44 25.6461C111.677 35.1221 109.102 45.7699 103.787 57.2978L100.144 61.7667C99.3496 62.7579 99.509 64.2054 100.5 65C101.491 65.7946 102.939 65.6348 103.733 64.6436C105.42 62.5377 122.363 41.4703 126.702 36.055C126.708 36.048 126.712 36.0424 126.714 36.0397C126.727 36.0403 126.743 36.0446 126.756 36.0501C126.756 36.0501 126.756 36.0529 126.756 36.055C127.319 50.3348 122.371 66.6533 112.046 84.5748H87.8263L91.9617 79.2253C92.7559 78.2341 92.5964 76.7863 91.6054 75.992C90.6145 75.1971 89.1669 75.3572 88.3728 76.3484L81.9325 84.5748H76.2589L70.5218 77.5664C74.6259 72.313 109.089 28.2001 111.156 25.5553ZM79.12 11.4482C79.1417 11.3881 79.1577 11.3443 79.2674 11.3443C79.3772 11.3443 79.3932 11.3878 79.4152 11.4486C81.9709 18.5202 86.6274 32.2271 89.5541 45.7334L79.1334 59.0717L68.8897 46.1563C71.8078 32.5273 76.526 18.626 79.12 11.4482ZM46.5764 25.8764C46.5773 25.8136 46.5782 25.7679 46.6831 25.7323C46.791 25.697 46.8217 25.7351 46.8603 25.7835C49.768 29.4495 73.1912 58.9809 76.2206 62.8005L67.5354 73.9175L55.0047 58.6098C49.2397 46.6847 46.4041 35.6726 46.5764 25.8764ZM31.0378 36.6518C31.0525 36.6447 31.069 36.6386 31.0687 36.6352C31.0687 36.6352 31.0764 36.6411 31.0899 36.6573C35.8531 42.4762 66.297 79.6662 70.3146 84.5742H45.9908C35.6618 66.9425 30.6309 50.8328 31.0378 36.6518ZM128.089 97.5276C124.582 97.5276 73.739 97.5276 70.2046 97.5276C68.9346 97.5276 67.905 98.5571 67.905 99.8277C67.905 101.098 68.9346 102.128 70.2046 102.128H119.587L109.18 155.518C108.767 157.637 106.901 159.175 104.743 159.175H53.7932C51.635 159.175 49.7689 157.637 49.3559 155.518L38.9484 102.128H50.9288C52.1988 102.128 53.2284 101.098 53.2284 99.8277C53.2284 98.5571 52.1988 97.5276 50.9288 97.5276C47.1369 97.5276 36.0515 97.5276 30.4469 97.5276C28.1442 97.5276 26.2711 95.6541 26.2711 93.351C26.2711 91.0482 28.1442 89.1747 30.4469 89.1747H128.089C130.392 89.1747 132.265 91.0482 132.265 93.351C132.264 95.6541 130.391 97.5276 128.089 97.5276Z" fill="#FF0000" fill-opacity="0.21"/>
<path d="M126.757 36.0726C126.757 36.0667 126.756 36.0609 126.756 36.055C126.756 36.0529 126.756 36.0501 126.756 36.0501M126.757 36.0726L126.71 36.045L126.714 36.0397M126.757 36.0726L126.749 36.0668L126.754 36.0551L126.754 36.055L126.756 36.0501M126.757 36.0726L126.714 36.0397M126.756 36.0501C126.743 36.0446 126.727 36.0403 126.714 36.0397M126.756 36.0501L126.723 36.0464L126.714 36.0397M46.5702 26.3832C46.5704 26.3495 46.5707 26.3157 46.571 26.282C46.7299 26.3464 46.8559 26.307 46.8695 26.3026L46.5702 26.3832ZM46.5702 26.3832C46.7324 26.5878 46.9339 26.8417 47.1708 27.1405C47.168 26.8179 47.1685 26.4966 47.1721 26.1766L46.5702 26.3832ZM128.089 83.9745H118.346C127.925 66.4614 132.521 50.2867 131.951 35.8495C131.865 33.6576 130.455 31.793 128.37 31.1058L128.37 31.1058C126.274 30.4155 124.023 31.0827 122.645 32.8022L122.645 32.8023L114.481 42.991C116.05 36.8769 116.775 31.0352 116.638 25.5159C116.58 23.2304 115.135 21.2829 112.964 20.5649L112.964 20.5649C110.789 19.8464 108.467 20.5498 107.058 22.3532L93.4994 39.7084C90.5456 27.6004 86.594 16.0159 84.3046 9.68089C83.5301 7.53536 81.5484 6.14414 79.2677 6.14414C76.9869 6.14414 75.0057 7.53548 74.2306 9.6806C71.9009 16.1272 67.8825 27.9192 64.9201 40.1857L50.9335 22.5518L50.9334 22.5518C49.5112 20.7589 47.1828 20.0719 45.015 20.8071C42.8492 21.541 41.4182 23.4989 41.3779 25.7849V25.7849C41.2765 31.5604 42.1204 37.6781 43.889 44.084L35.113 33.3632L35.113 33.3632C33.7165 31.6577 31.4587 31.0153 29.3704 31.7266L29.3701 31.7267C27.2917 32.4357 25.9028 34.315 25.8391 36.5077L25.8391 36.5078C25.4251 50.8036 30.094 66.7563 39.6624 83.9745H30.4469C25.2767 83.9745 21.0719 88.1804 21.0719 93.351C21.0719 98.5216 25.2767 102.728 30.4469 102.728H33.7684L44.253 156.514C45.141 161.07 49.1527 164.375 53.7932 164.375H104.743C109.383 164.375 113.395 161.07 114.283 156.514L124.767 102.728H128.089C133.258 102.728 137.464 98.5216 137.464 93.351C137.464 88.1804 133.259 83.9745 128.089 83.9745ZM71.2901 77.5576C76.1799 71.2985 105.416 33.8765 110.855 26.915C110.843 35.94 108.307 46.042 103.274 56.9777L99.6787 61.3876L99.6755 61.3916C98.6742 62.6413 98.8752 64.4663 100.125 65.4681C101.374 66.4701 103.2 66.2686 104.201 65.0188C104.851 64.2073 107.769 60.5775 111.358 56.1124C112.423 54.7867 113.548 53.3873 114.691 51.9662C119.045 46.5492 123.652 40.8165 126.196 37.6451C126.346 51.3191 121.497 66.8847 111.699 83.9748H89.0485L92.43 79.6005C92.4312 79.599 92.4324 79.5975 92.4336 79.5959C93.4307 78.3464 93.2288 76.5242 91.9807 75.5238C90.7309 74.5215 88.9057 74.7236 87.9045 75.9732L87.9004 75.9785L81.6403 83.9748H76.5432L71.2901 77.5576ZM55.514 58.2848L55.4689 58.2297L55.0047 58.6098L55.5448 58.3487C55.5345 58.3274 55.5243 58.3061 55.514 58.2848ZM67.5245 72.957L67.1458 73.4416L67.5354 73.9175L67.9141 73.4329L67.5245 72.957ZM75.7478 62.4311L75.457 62.8033C75.5695 62.9452 75.6677 63.0689 75.7505 63.1734L76.2206 62.8005L75.7478 62.4311ZM46.3351 83.9742C36.5382 67.17 31.6134 51.8133 31.6149 38.2459C34.1241 41.3112 39.2711 47.5988 45.014 54.6143C54.4127 66.0957 65.4075 79.5269 69.048 83.9742H46.3351ZM69.5359 46.0054C72.2986 33.205 76.6322 20.1964 79.2675 12.8125C81.8653 20.0911 86.1401 32.911 88.908 45.5858L79.1299 58.1016L69.5359 46.0054ZM128.089 96.9276H128.068H128.045H128.022H127.998H127.972H127.946H127.918H127.89H127.86H127.83H127.798H127.765H127.732H127.697H127.661H127.624H127.586H127.547H127.508H127.467H127.425H127.382H127.338H127.293H127.247H127.201H127.153H127.104H127.054H127.004H126.952H126.9H126.846H126.792H126.736H126.68H126.623H126.564H126.505H126.445H126.384H126.322H126.26H126.196H126.131H126.066H126H125.932H125.864H125.795H125.725H125.655H125.583H125.511H125.437H125.363H125.288H125.212H125.136H125.058H124.98H124.901H124.821H124.74H124.658H124.576H124.492H124.408H124.324H124.238H124.151H124.064H123.976H123.888H123.798H123.708H123.617H123.525H123.432H123.339H123.245H123.15H123.055H122.958H122.861H122.764H122.665H122.566H122.466H122.366H122.264H122.162H122.06H121.956H121.852H121.748H121.642H121.536H121.429H121.322H121.214H121.105H120.996H120.886H120.775H120.664H120.552H120.439H120.326H120.212H120.098H119.983H119.867H119.751H119.634H119.517H119.399H119.28H119.161H119.041H118.921H118.8H118.678H118.556H118.433H118.31H118.186H118.062H117.937H117.812H117.686H117.56H117.433H117.305H117.177H117.049H116.92H116.79H116.66H116.529H116.398H116.267H116.135H116.003H115.87H115.736H115.602H115.468H115.333H115.198H115.062H114.926H114.79H114.653H114.515H114.377H114.239H114.1H113.961H113.822H113.682H113.541H113.401H113.259H113.118H112.976H112.834H112.691H112.548H112.405H112.261H112.117H111.972H111.827H111.682H111.537H111.391H111.245H111.098H110.951H110.804H110.656H110.509H110.36H110.212H110.063H109.914H109.765H109.615H109.465H109.315H109.165H109.014H108.863H108.712H108.56H108.409H108.257H108.104H107.952H107.799H107.646H107.493H107.34H107.186H107.032H106.878H106.724H106.569H106.415H106.26H106.105H105.949H105.794H105.638H105.483H105.327H105.17H105.014H104.858H104.701H104.544H104.388H104.231H104.073H103.916H103.759H103.601H103.443H103.286H103.128H102.97H102.812H102.654H102.495H102.337H102.178H102.02H101.861H101.703H101.544H101.385H101.226H101.067H100.908H100.749H100.59H100.431H100.272H100.113H99.9534H99.7942H99.635H99.4757H99.3165H99.1572H98.9979H98.8386H98.6794H98.5201H98.3609H98.2017H98.0425H97.8834H97.7243H97.5652H97.4061H97.2472H97.0882H96.9293H96.7705H96.6117H96.453H96.2944H96.1359H95.9774H95.819H95.6607H95.5025H95.3444H95.1864H95.0285H94.8707H94.713H94.5555H94.398H94.2407H94.0835H93.9265H93.7696H93.6128H93.4562H93.2997H93.1434H92.9873H92.8313H92.6755H92.5199H92.3644H92.2091H92.054H91.8991H91.7444H91.5899H91.4356H91.2815H91.1276H90.9739H90.8205H90.6672H90.5142H90.3615H90.2089H90.0566H89.9046H89.7528H89.6012H89.45H89.2989H89.1482H88.9977H88.8475H88.6975H88.5479H88.3985H88.2495H88.1007H87.9522H87.804H87.6562H87.5086H87.3614H87.2145H87.0679H86.9216H86.7757H86.6301H86.4849H86.34H86.1954H86.0512H85.9074H85.7639H85.6208H85.4781H85.3358H85.1938H85.0522H84.911H84.7702H84.6298H84.4898H84.3502H84.211H84.0722H83.9339H83.7959H83.6584H83.5214H83.3847H83.2485H83.1128H82.9774H82.8426H82.7082H82.5743H82.4408H82.3078H82.1752H82.0432H81.9116H81.7805H81.6499H81.5198H81.3902H81.2611H81.1326H81.0045H80.8769H80.7499H80.6234H80.4974H80.3719H80.247H80.1226H79.9988H79.8755H79.7528H79.6306H79.509H79.3879H79.2675H79.1476H79.0283H78.9095H78.7914H78.6738H78.5569H78.4405H78.3248H78.2096H78.0951H77.9812H77.8679H77.7552H77.6432H77.5318H77.421H77.3109H77.2014H77.0926H76.9845H76.8769H76.7701H76.6639H76.5584H76.4536H76.3495H76.246H76.1432H76.0412H75.9398H75.8391H75.7391H75.6399H75.5413H75.4435H75.3464H75.25H75.1544H75.0595H74.9653H74.8719H74.7792H74.6873H74.5961H74.5057H74.4161H74.3272H74.2391H74.1518H74.0653H73.9795H73.8946H73.8104H73.7271H73.6445H73.5628H73.4818H73.4017H73.3224H73.2439H73.1663H73.0895H73.0135H72.9384H72.8641H72.7906H72.718H72.6463H72.5754H72.5055H72.4363H72.3681H72.3007H72.2342H72.1686H72.1039H72.0401H71.9772H71.9152H71.8541H71.7939H71.7347H71.6763H71.6189H71.5624H71.5069H71.4523H71.3986H71.3459H71.2941H71.2433H71.1935H71.1446H71.0967H71.0497H71.0037H70.9588H70.9147H70.8717H70.8297H70.7887H70.7487H70.7097H70.6717H70.6347H70.5987H70.5638H70.5299H70.497H70.4651H70.4343H70.4046H70.3759H70.3482H70.3216H70.2961H70.2716H70.2482H70.2259H70.2046C68.6032 96.9276 67.305 98.2258 67.305 99.8277C67.305 101.43 68.6032 102.728 70.2046 102.728H118.859L108.591 155.404C108.233 157.241 106.613 158.575 104.743 158.575H53.7932C51.9222 158.575 50.3029 157.241 49.9448 155.404L39.6767 102.728H50.9288C52.5302 102.728 53.8284 101.43 53.8284 99.8277C53.8284 98.2258 52.5302 96.9276 50.9288 96.9276H50.9065H50.884H50.8614H50.8386H50.8156H50.7925H50.7692H50.7458H50.7222H50.6984H50.6744H50.6503H50.6261H50.6017H50.5771H50.5523H50.5274H50.5024H50.4772H50.4518H50.4263H50.4006H50.3748H50.3488H50.3227H50.2964H50.2699H50.2434H50.2166H50.1897H50.1627H50.1355H50.1081H50.0806H50.053H50.0252H49.9973H49.9692H49.941H49.9126H49.8841H49.8555H49.8267H49.7977H49.7686H49.7394H49.7101H49.6806H49.6509H49.6211H49.5912H49.5611H49.531H49.5006H49.4702H49.4396H49.4088H49.3779H49.3469H49.3158H49.2845H49.2531H49.2216H49.1899H49.1581H49.1262H49.0941H49.0619H49.0296H48.9972H48.9646H48.9319H48.8991H48.8662H48.8331H48.7999H48.7666H48.7331H48.6996H48.6659H48.6321H48.5982H48.5641H48.5299H48.4957H48.4613H48.4267H48.3921H48.3573H48.3225H48.2875H48.2524H48.2172H48.1818H48.1464H48.1108H48.0752H48.0394H48.0035H47.9675H47.9314H47.8952H47.8588H47.8224H47.7858H47.7492H47.7124H47.6756H47.6386H47.6015H47.5644H47.5271H47.4897H47.4522H47.4146H47.3769H47.3391H47.3012H47.2632H47.2252H47.187H47.1487H47.1103H47.0718H47.0332H46.9946H46.9558H46.9169H46.878H46.8389H46.7998H46.7606H46.7212H46.6818H46.6423H46.6027H46.563H46.5233H46.4834H46.4435H46.4034H46.3633H46.3231H46.2828H46.2424H46.202H46.1614H46.1208H46.0801H46.0393H45.9984H45.9575H45.9164H45.8753H45.8341H45.7928H45.7515H45.7101H45.6686H45.627H45.5853H45.5436H45.5018H45.4599H45.4179H45.3759H45.3338H45.2917H45.2494H45.2071H45.1647H45.1223H45.0798H45.0372H44.9945H44.9518H44.909H44.8662H44.8232H44.7803H44.7372H44.6941H44.6509H44.6077H44.5644H44.521H44.4776H44.4341H44.3906H44.347H44.3033H44.2596H44.2158H44.172H44.1281H44.0842H44.0402H43.9961H43.952H43.9079H43.8637H43.8194H43.7751H43.7307H43.6863H43.6419H43.5973H43.5528H43.5082H43.4635H43.4188H43.374H43.3292H43.2844H43.2395H43.1946H43.1496H43.1046H43.0595H43.0144H42.9693H42.9241H42.8789H42.8336H42.7883H42.743H42.6976H42.6522H42.6067H42.5612H42.5157H42.4701H42.4245H42.3789H42.3332H42.2875H42.2418H42.196H42.1503H42.1044H42.0586H42.0127H41.9668H41.9209H41.8749H41.8289H41.7829H41.7368H41.6908H41.6447H41.5986H41.5524H41.5062H41.4601H41.4139H41.3676H41.3214H41.2751H41.2288H41.1825H41.1362H41.0898H41.0435H40.9971H40.9507H40.9043H40.8578H40.8114H40.7649H40.7185H40.672H40.6255H40.579H40.5325H40.4859H40.4394H40.3929H40.3463H40.2997H40.2532H40.2066H40.16H40.1134H40.0668H40.0202H39.9736H39.927H39.8804H39.8338H39.7872H39.7406H39.6939H39.6473H39.6007H39.5541H39.5075H39.4609H39.4142H39.3676H39.321H39.2744H39.2278H39.1813H39.1347H39.0881H39.0415H38.995H38.9484H38.9019H38.8553H38.8088H38.7623H38.7158H38.6693H38.6228H38.5764H38.5299H38.4835H38.4371H38.3907H38.3443H38.2979H38.2515H38.2052H38.1589H38.1126H38.0663H38.02H37.9738H37.9275H37.8813H37.8352H37.789H37.7429H37.6968H37.6507H37.6046H37.5586H37.5126H37.4666H37.4206H37.3747H37.3288H37.2829H37.2371H37.1913H37.1455H37.0998H37.054H37.0084H36.9627H36.9171H36.8715H36.826H36.7804H36.735H36.6895H36.6441H36.5987H36.5534H36.5081H36.4629H36.4177H36.3725H36.3274H36.2823H36.2372H36.1922H36.1473H36.1023H36.0575H36.0126H35.9679H35.9231H35.8784H35.8338H35.7892H35.7446H35.7001H35.6557H35.6113H35.567H35.5227H35.4784H35.4342H35.3901H35.346H35.302H35.258H35.2141H35.1702H35.1264H35.0826H35.0389H34.9953H34.9517H34.9082H34.8647H34.8213H34.778H34.7347H34.6915H34.6484H34.6053H34.5623H34.5193H34.4764H34.4336H34.3908H34.3481H34.3055H34.2629H34.2204H34.178H34.1356H34.0933H34.0511H34.009H33.9669H33.9249H33.883H33.8411H33.7994H33.7576H33.716H33.6745H33.633H33.5916H33.5503H33.509H33.4678H33.4268H33.3858H33.3448H33.304H33.2632H33.2225H33.1819H33.1414H33.101H33.0606H33.0204H32.9802H32.9401H32.9001H32.8602H32.8203H32.7806H32.7409H32.7014H32.6619H32.6225H32.5832H32.544H32.5049H32.4659H32.427H32.3882H32.3494H32.3108H32.2722H32.2338H32.1954H32.1572H32.119H32.081H32.043H32.0052H31.9674H31.9298H31.8922H31.8547H31.8174H31.7802H31.743H31.706H31.669H31.6322H31.5955H31.5589H31.5224H31.486H31.4497H31.4135H31.3774H31.3415H31.3056H31.2699H31.2342H31.1987H31.1633H31.128H31.0928H31.0578H31.0228H30.988H30.9533H30.9187H30.8842H30.8498H30.8156H30.7815H30.7475H30.7136H30.6798H30.6462H30.6127H30.5793H30.546H30.5128H30.4798H30.4469C28.4757 96.9276 26.8711 95.3229 26.8711 93.351C26.8711 91.3794 28.4757 89.7747 30.4469 89.7747H128.089C130.06 89.7747 131.665 91.3794 131.665 93.351C131.664 95.3229 130.06 96.9276 128.089 96.9276Z" stroke="#FF0000" stroke-opacity="0.21" stroke-width="1.2"/>
<path d="M97.6137 70.3073C97.6137 71.5816 96.5809 72.6146 95.3068 72.6146C94.0328 72.6146 93 71.5816 93 70.3073C93 69.033 94.0328 68 95.3068 68C96.5809 68 97.6137 69.033 97.6137 70.3073Z" fill="#FF0000" fill-opacity="0.21"/>
<path d="M95.3068 73.1146C96.8571 73.1146 98.1137 71.8576 98.1137 70.3073C98.1137 68.757 96.8571 67.5 95.3068 67.5C93.7566 67.5 92.5 68.757 92.5 70.3073C92.5 71.8576 93.7566 73.1146 95.3068 73.1146Z" stroke="#FF0000" stroke-opacity="0.21"/>
<ellipse cx="60.5799" cy="100.09" rx="2.30684" ry="2.30729" fill="#FF0000" fill-opacity="0.21"/>
<path d="M60.5799 102.898C62.1302 102.898 63.3868 101.641 63.3868 100.09C63.3868 98.5402 62.1302 97.2832 60.5799 97.2832C59.0296 97.2832 57.7731 98.5402 57.7731 100.09C57.7731 101.641 59.0296 102.898 60.5799 102.898Z" stroke="#FF0000" stroke-opacity="0.21"/>
</svg>
